# AST/ASF file generated using VICON BodyLanguage
# -----------------------------------------------
:version 1.10
:name VICON
:units
  mass 1.0
  length 0.45
  angle deg
:documentation
   .ast/.asf automatically generated from VICON data using
   VICON BodyBuilder and BodyLanguage model FoxedUp or BRILLIANT.MOD
:root
   order TX TY TZ RX RY RZ
   axis XYZ
   position 0 0 0  
   orientation 0 0 0 
:bonedata
  begin
     id 1 
     name lhipjoint
     direction 0.63403 -0.759788 0.143974 
     length 2.51904 
     axis 0 0 0  XYZ
  end
  begin
     id 2 
     name lfemur
     direction 0.34202 -0.939693 0  
     length 7.42313  
     axis 0 0 20  XYZ
    dof rx ry rz
    limits (-160.0 20.0)
           (-70.0 70.0)
           (-60.0 70.0)
  end
  begin
     id 3 
     name ltibia
     direction 0.34202 -0.939693 0   
     length 8.10141   
     axis 0 0 20   XYZ
    dof rx
    limits (-10.0 170.0)
  end
  begin
     id 4 
     name lfoot
     direction 0.0927455 -0.254816 0.962532   
     length 2.14078   
     axis -90 7.62852e-016 20   XYZ
    dof rx rz
    limits (-45.0 90.0)
           (-70.0 20.0)
  end
  begin
     id 5 
     name ltoes
     direction 1.53556e-011 -4.21949e-011 1   
     length 1.07182   
     axis -90 7.62852e-016 20   XYZ
    dof rx
    limits (-90.0 20.0)
  end
  begin
     id 6 
     name rhipjoint
     direction -0.659892 -0.738223 0.139888   
     length 2.59263  
     axis 0 0 0  XYZ 
  end
  begin
     id 7 
     name rfemur
     direction -0.34202 -0.939693 0   
     length 7.58575   
     axis 0 0 -20   XYZ
    dof rx ry rz
    limits (-160.0 20.0)
           (-70.0 70.0)
           (-70.0 60.0)
  end
  begin
     id 8 
     name rtibia
     direction -0.34202 -0.939693 0   
     length 8.19358   
     axis 0 0 -20   XYZ
    dof rx
    limits (-10.0 170.0)
 end
 begin
     id 9 
     name rfoot
     direction -0.0856543 -0.235333 0.968133   
     length 2.13415  
     axis -90 -7.62852e-016 -20   XYZ
    dof rx rz
    limits (-45.0 90.0)
           (-20.0 70.0)
  end
  begin
     id 10 
     name rtoes
     direction -1.53551e-011 -4.21811e-011 1   
     length 1.07055   
     axis -90 -7.62852e-016 -20   XYZ
    dof rx
    limits (-90.0 20.0)
  end
  begin
     id 11 
     name lowerback
     direction 0.025219 0.998394 -0.0507326   
     length 1.91844   
     axis 0 0 0   XYZ
    dof rx ry rz
    limits (-20.0 45.0)
           (-30.0 30.0)
           (-30.0 30.0)
  end
  begin
     id 12 
     name upperback
     direction 0.0213103 0.99967 -0.0143101   
     length 1.92246   
     axis 0 0 0   XYZ
    dof rx ry rz
    limits (-20.0 45.0)
           (-30.0 30.0)
           (-30.0 30.0)
  end
  begin
     id 13 
     name thorax
     direction 0.00920974 0.99991 0.00971518   
     length 1.92239   
     axis 0 0 0   XYZ
    dof rx ry rz
    limits (-20.0 45.0)
           (-30.0 30.0)
           (-30.0 30.0)
  end
  begin
     id 14 
     name lowerneck
     direction 0.0598257 0.997249 0.0437612   
     length 3.13679   
     axis 0 0 0   XYZ
    dof rx ry rz
    limits (-20.0 45.0)
           (-30.0 30.0)
           (-30.0 30.0)
  end
  begin
     id 15 
     name upperneck
     direction -0.035342 0.999338 0.00863891   
     length 3.16283   
     axis 0 0 0   XYZ
    dof rx ry rz
    limits (-20.0 45.0)
           (-30.0 30.0)
           (-30.0 30.0)
  end
  begin
     id 16
     name head
     direction 0.37144 0.811566 0.450991  
     length 1.2838  
     axis 0 0 0   XYZ
    dof rx ry rz
    limits (-20.0 45.0)
           (-30.0 30.0)
           (-30.0 30.0)
  end
  begin
     id 17 
     name lclavicle
     direction 0.961094 0.274654 -0.0293862  
     length 3.63466  
     axis 0 0 0   XYZ
    dof ry rz
    limits (-20.0 10.0)
           (0.0 20.0)
  end
  begin
     id 18 
     name lhumerus
     direction 1 -4.48963e-011 1.10303e-027   
     length 5.12842   
     axis 180 -30 -90   XYZ
    dof rx ry rz
    limits (-60.0 90.0)
           (-90.0 90.0)
           (-90.0 90.0)
  end
  begin
     id 19
     name lradius
     direction 1 -4.48968e-011 4.13199e-027   
     length 3.47396   
     axis 180 -30 -90   XYZ
    dof rx
    limits (-10.0 170.0)
  end
  begin
     id 20
     name lwrist
     direction 1 -4.48948e-011 9.12708e-027   
     length 1.73698   
     axis -6.84618e-015 90 90   XYZ
    dof ry
    limits (-180.0 0.0)
 end
  begin
     id 21 
     name lhand
     direction 1 -4.49057e-011 1.82749e-026   
     length 0.728607   
     axis -1.16502e-014 90 90   XYZ
    dof rx rz
    limits (-90.0 90.0)
           (-45.0 45.0)
  end
  begin
     id 22 
     name lfingers
     direction 1 -4.48912e-011 3.64949e-026   
     length 0.587422   
     axis -2.33008e-014 90 90   XYZ
    dof rx
    limits (0.0 90.0)
  end
  begin
     id 23
     name lthumb
     direction 0.707107 -6.34995e-011 0.707107   
     length 0.843424   
     axis -90 45 5.69224e-014   XYZ
    dof rx rz
    limits (-45.0 45.0)
           (-45.0 45.0)
  end
  begin
     id 24 
     name rclavicle
     direction -0.90514 0.421881 -0.0523369   
     length 3.57139  
     axis 0 0 0   XYZ 
    dof ry rz
    limits (-10.0 20.0)
           (-20.0 0.0)
  end
  begin
     id 25 
     name rhumerus
     direction -1 -4.48954e-011 -1.76662e-027  
     length 5.48477   
     axis 180 30 90   XYZ
    dof rx ry rz
    limits (-90.0 60.0)
           (-90.0 90.0)
           (-90.0 90.0)
  end
  begin
     id 26 
     name rradius
     direction -1 -4.48982e-011 1.26841e-027   
     length 3.47856   
     axis 180 30 90   XYZ
    dof rx
    limits (-10.0 170.0)
  end
  begin
     id 27 
     name rwrist
     direction -1 -4.49037e-011 9.13554e-027   
     length 1.73928   
     axis -6.84618e-015 -90 -90   XYZ
    dof ry
    limits (-180.0 0.0)
  end
  begin
     id 28
     name rhand
     direction -1 -4.48871e-011 1.82397e-026   
     length 0.709974   
     axis -1.16502e-014 -90 -90   XYZ
    dof rx rz
    limits (-90.0 90.0)
           (-45.0 45.0)
  end
  begin
     id 29
     name rfingers
     direction -1 -4.48994e-011 3.65258e-026   
     length 0.572399   
     axis -2.33008e-014 -90 -90   XYZ
    dof rx
    limits (0.0 90.0)
  end
  begin
     id 30
     name rthumb
     direction -0.707107 -6.34861e-011 0.707107   
     length 0.821855   
     axis -90 -45 -5.69224e-014   XYZ
    dof rx rz
    limits (-45.0 45.0)
           (-45.0 45.0)
  end
:hierarchy
  begin
    root lhipjoint rhipjoint lowerback
    lhipjoint lfemur
    lfemur ltibia
    ltibia lfoot
    lfoot ltoes
    rhipjoint rfemur
    rfemur rtibia
    rtibia rfoot
    rfoot rtoes
    lowerback upperback
    upperback thorax
    thorax lowerneck lclavicle rclavicle
    lowerneck upperneck
    upperneck head
    lclavicle lhumerus
    lhumerus lradius
    lradius lwrist
    lwrist lhand lthumb
    lhand lfingers
    rclavicle rhumerus
    rhumerus rradius
    rradius rwrist
    rwrist rhand rthumb
    rhand rfingers
  end

#!OML:ASF F:\VICON\USERDATA\INSTALL\Justin1\Justin1.ASF
:FULLY-SPECIFIED
:DEGREES
2758
root 0.202873 18.1864 -3.43132 4.9366 0.296627 -4.08771
lowerback 1.22246 -0.729826 2.91803
upperback -1.77081 -0.815809 3.91741
thorax -2.49154 -0.422866 2.42297
lowerneck -15.074 -2.01523 -4.01923
upperneck 18.6008 -1.21272 -2.83213
head 8.29143 -1.15238 -0.423856
rclavicle -6.4605e-015 5.1684e-014
rhumerus -32.4504 -11.6508 -76.6879
rradius 30.5394
rwrist -2.38258
rhand -22.5918 14.473
rfingers 7.12502
rthumb 3.83733 -15.4722
lclavicle -6.4605e-015 5.1684e-014
lhumerus -37.6376 13.2737 83.8555
lradius 31.8801
lwrist -13.981
lhand -10.1221 28.6199
lfingers 7.12502
lthumb 15.8661 57.9899
rfemur -15.2503 9.56458 27.7943
rtibia 32.6571
rfoot -18.1861 -12.229
rtoes 27.1098
lfemur -13.6669 -8.26328 -18.4636
ltibia 30.1164
lfoot -18.5251 10.7572
ltoes 4.80727
2759
root 0.199116 18.186 -3.4314 4.91378 0.304053 -4.11134
lowerback 1.25669 -0.717747 2.90143
upperback -1.7611 -0.798341 3.93109
thorax -2.50075 -0.413712 2.44626
lowerneck -15.112 -2.01632 -3.95573
upperneck 18.6038 -1.21203 -2.90407
head 8.29825 -1.15524 -0.458726
rclavicle -8.39865e-015 2.38542e-014
rhumerus -32.3801 -11.6125 -76.7583
rradius 30.6561
rwrist -2.44589
rhand -22.6554 14.3788
rfingers 7.12502
rthumb 3.77588 -15.5675
lclavicle -8.39865e-015 2.38542e-014
lhumerus -37.5538 13.3847 83.847
lradius 31.7953
lwrist -14.1543
lhand -10.1256 28.5853
lfingers 7.12502
lthumb 15.8627 57.9556
rfemur -15.2121 9.59948 27.8411
rtibia 32.6319
rfoot -18.1399 -12.2894
rtoes 26.8753
lfemur -13.692 -8.29358 -18.4201
ltibia 30.1982
lfoot -18.5521 10.7709
ltoes 4.71379
2760
root 0.196906 18.1846 -3.43265 4.92108 0.331198 -4.12978
lowerback 1.28937 -0.725301 2.90526
upperback -1.76991 -0.805835 3.9402
thorax -2.52807 -0.417552 2.45451
lowerneck -15.1639 -2.01536 -3.89339
upperneck 18.6327 -1.20606 -2.97901
head 8.31634 -1.15669 -0.494239
rclavicle -9.36773e-015 2.54444e-014
rhumerus -32.3751 -11.4442 -76.8543
rradius 30.7868
rwrist -2.5883
rhand -22.7147 14.6799
rfingers 7.12502
rthumb 3.71859 -15.2674
lclavicle -9.36773e-015 2.54444e-014
lhumerus -37.5072 13.3523 83.8854
lradius 31.7773
lwrist -14.1874
lhand -10.189 28.5801
lfingers 7.12502
lthumb 15.8017 57.9552
rfemur -15.2204 9.60477 27.8722
rtibia 32.6117
rfoot -18.1987 -12.3211
rtoes 27.1332
lfemur -13.7334 -8.29401 -18.3878
ltibia 30.2489
lfoot -18.5615 10.7648
ltoes 4.52723
2761
root 0.195502 18.1835 -3.43153 4.89624 0.34246 -4.16483
lowerback 1.27709 -0.722541 2.9517
upperback -1.74684 -0.802796 3.94096
thorax -2.4981 -0.416724 2.42859
lowerneck -15.2081 -2.0154 -3.88988
upperneck 18.6776 -1.2057 -2.96585
head 8.33942 -1.15614 -0.491325
rclavicle 1.54058e-014 -7.15625e-014
rhumerus -32.4359 -11.3872 -76.8986
rradius 30.9516
rwrist -2.6206
rhand -22.678 14.6669
rfingers 7.12502
rthumb 3.75408 -15.2797
lclavicle 1.54058e-014 -7.15625e-014
lhumerus -37.3959 13.2768 83.9391
lradius 31.7091
lwrist -14.1485
lhand -10.2533 28.6506
lfingers 7.12502
lthumb 15.7397 58.0306
rfemur -15.1834 9.57693 27.9255
rtibia 32.5993
rfoot -18.2051 -12.3647
rtoes 26.8568
lfemur -13.7137 -8.2467 -18.3546
ltibia 30.275
lfoot -18.569 10.7498
ltoes 4.32841
2762
root 0.192796 18.1854 -3.42644 4.87644 0.287906 -4.15521
lowerback 1.2359 -0.697134 2.9229
upperback -1.73457 -0.772814 3.92957
thorax -2.46252 -0.40117 2.43102
lowerneck -15.2048 -2.00641 -3.87845
upperneck 18.7057 -1.19961 -2.94571
head 8.34816 -1.15091 -0.485966
rclavicle 1.4387e-014 -4.53229e-014
rhumerus -32.432 -11.4281 -76.9595
rradius 31.0463
rwrist -2.54772
rhand -22.6059 14.5409
rfingers 7.12502
rthumb 3.82372 -15.4046
lclavicle 1.4387e-014 -4.53229e-014
lhumerus -37.2785 13.3109 83.9278
lradius 31.5495
lwrist -14.0721
lhand -10.2209 28.5198
lfingers 7.12502
lthumb 15.7709 57.8973
rfemur -15.1605 9.64621 27.9236
rtibia 32.6002
rfoot -18.138 -12.4057
rtoes 26.4969
lfemur -13.6736 -8.22245 -18.3723
ltibia 30.2858
lfoot -18.5834 10.8163
ltoes 4.30946
2763
root 0.190331 18.1855 -3.42335 4.88375 0.251331 -4.10653
lowerback 1.18191 -0.676351 2.86511
upperback -1.73795 -0.749842 3.90635
thorax -2.43547 -0.388769 2.43776
lowerneck -15.1675 -2.00512 -3.87595
upperneck 18.7105 -1.20761 -2.91182
head 8.34313 -1.15083 -0.475549
rclavicle -1.17531e-014 1.59028e-014
rhumerus -32.2589 -11.5051 -77.0506
rradius 30.9161
rwrist -2.42183
rhand -22.5389 14.9244
rfingers 7.12502
rthumb 3.88835 -15.0199
lclavicle -1.17531e-014 1.59028e-014
lhumerus -37.2474 13.2444 83.9532
lradius 31.5516
lwrist -13.8943
lhand -10.2213 28.2925
lfingers 7.12502
lthumb 15.7705 57.67
rfemur -15.1693 9.67122 27.8741
rtibia 32.607
rfoot -18.1388 -12.3804
rtoes 26.5151
lfemur -13.6613 -8.22204 -18.4243
ltibia 30.2854
lfoot -18.5929 10.8525
ltoes 4.2992
